<?xml version="1.0" encoding="UTF-8" standalone="no"?>
<!-- Generator: Adobe Illustrator 17.0.1, SVG Export Plug-In . SVG Version: 6.00 Build 0)  -->

<svg
   xmlns:dc="http://purl.org/dc/elements/1.1/"
   xmlns:cc="http://creativecommons.org/ns#"
   xmlns:rdf="http://www.w3.org/1999/02/22-rdf-syntax-ns#"
   xmlns:svg="http://www.w3.org/2000/svg"
   xmlns="http://www.w3.org/2000/svg"
   xmlns:sodipodi="http://sodipodi.sourceforge.net/DTD/sodipodi-0.dtd"
   xmlns:inkscape="http://www.inkscape.org/namespaces/inkscape"
   version="1.1"
   x="0px"
   y="0px"
   width="86px"
   height="86px"
   viewBox="0 0 86 86"
   enable-background="new 0 0 86 86"
   xml:space="preserve"
   id="svg21"
   sodipodi:docname="harbour-multi-keyboard-layouts.svg"
   inkscape:version="0.92.4 (5da689c313, 2019-01-14)"
   inkscape:export-filename="C:\Users\Adel\Desktop\harbour-multi-keyboard-layouts.png"
   inkscape:export-xdpi="193.34895"
   inkscape:export-ydpi="193.34895"><metadata
   id="metadata27"><rdf:RDF><cc:Work
       rdf:about=""><dc:format>image/svg+xml</dc:format><dc:type
         rdf:resource="http://purl.org/dc/dcmitype/StillImage" /><dc:title></dc:title></cc:Work></rdf:RDF></metadata><defs
   id="defs25" /><sodipodi:namedview
   pagecolor="#ffffff"
   bordercolor="#666666"
   borderopacity="1"
   objecttolerance="10"
   gridtolerance="10"
   guidetolerance="10"
   inkscape:pageopacity="0"
   inkscape:pageshadow="2"
   inkscape:window-width="2275"
   inkscape:window-height="1673"
   id="namedview23"
   showgrid="false"
   inkscape:zoom="7.7617302"
   inkscape:cx="36.488787"
   inkscape:cy="26.066463"
   inkscape:window-x="1222"
   inkscape:window-y="113"
   inkscape:window-maximized="0"
   inkscape:current-layer="svg21" />
<g
   id="Layer_2"
   display="none">
</g>
<g
   id="Layer_1">
	<linearGradient
   id="SVGID_1_"
   gradientUnits="userSpaceOnUse"
   x1="0.7169"
   y1="85.2831"
   x2="85.2831"
   y2="0.7169">
		<stop
   offset="0"
   style="stop-color:#EB424A"
   id="stop3" />
		<stop
   offset="1"
   style="stop-color:#FF7500"
   id="stop5" />
	</linearGradient>
	<path
   fill="url(#SVGID_1_)"
   d="M84.277,0.3H43C19.417,0.3,0.3,19.418,0.3,43v41.277c0,0.786,0.637,1.423,1.423,1.423H43   c23.583,0,42.7-19.118,42.7-42.7V1.723C85.7,0.937,85.063,0.3,84.277,0.3z"
   id="path8" />
	<g
   id="g12">
		<path
   fill="#FCBA03"
   d="M75.022,12.586c0-1.611,0-1.611-1.779-1.611c0,0-29.768,0-30.244,0c-17.686,0-32.024,12.983-32.024,28.999    c0,16.016,10.977,15.862,32.024,15.862c17.844,0,32.023-12.983,32.023-28.999C75.022,26.405,75.022,12.586,75.022,12.586z"
   id="path10" />
	</g>
	<path
   opacity="0.7"
   fill="#89E700"
   d="M44.176,57.633c-5.264-10.316-16.352-17.443-29.15-17.443h-3.783   c-0.169,1.277-0.266,2.574-0.268,3.893c0.004,4.865,1.192,9.469,3.298,13.569c5.278,10.279,16.343,17.373,29.113,17.373h4.052   v-3.869C47.437,66.309,46.264,61.721,44.176,57.633z"
   id="path14" />
	<path
   fill="#FC8272"
   d="M0.3,54.763c7.055-1.559,10.675-5.385,10.675-14.788c0-6.308-2.132-12.141-5.74-16.9   C2.089,29.024,0.3,35.802,0.3,43V54.763z"
   id="path16" />
	<path
   opacity="0.6"
   fill="#D1A5FF"
   d="M7.824,57.652c2.012-4.099,3.147-8.703,3.151-13.569c-0.002-1.319-0.095-2.617-0.256-3.893   H7.104c-2.319,0-4.578,0.259-6.752,0.744C0.319,41.619,0.3,42.307,0.3,43v24.415C3.413,64.706,5.988,61.394,7.824,57.652z"
   id="path18" />
</g>
<text
   xml:space="preserve"
   style="font-style:normal;font-weight:normal;font-size:27.07373047px;line-height:1.25;font-family:sans-serif;letter-spacing:0px;word-spacing:0px;fill:#000000;fill-opacity:1;stroke:none;stroke-width:0.67684323"
   x="17.945591"
   y="43.548328"
   id="text3734"
   transform="scale(1.0034895,0.99652264)"><tspan
     sodipodi:role="line"
     x="17.945591"
     y="43.548328"
     id="tspan3740"
     style="stroke-width:0.67684323">KEY</tspan></text>
<text
   xml:space="preserve"
   style="font-style:normal;font-weight:normal;font-size:11.75264359px;line-height:1.25;font-family:sans-serif;letter-spacing:0px;word-spacing:0px;fill:#000000;fill-opacity:1;stroke:none;stroke-width:0.29381609"
   x="8.5439034"
   y="66.084679"
   id="text3746"><tspan
     sodipodi:role="line"
     id="tspan3744"
     x="8.5439034"
     y="66.084679"
     style="stroke-width:0.29381609">Keyboard</tspan><tspan
     sodipodi:role="line"
     x="8.5439034"
     y="80.775482"
     style="stroke-width:0.29381609"
     id="tspan3748">layouts</tspan></text>
</svg>