<?xml version="1.0" encoding="UTF-8" standalone="no"?>
<!-- Generator: Adobe Illustrator 17.0.1, SVG Export Plug-In . SVG Version: 6.00 Build 0)  -->

<svg
   xmlns:dc="http://purl.org/dc/elements/1.1/"
   xmlns:cc="http://creativecommons.org/ns#"
   xmlns:rdf="http://www.w3.org/1999/02/22-rdf-syntax-ns#"
   xmlns:svg="http://www.w3.org/2000/svg"
   xmlns="http://www.w3.org/2000/svg"
   xmlns:sodipodi="http://sodipodi.sourceforge.net/DTD/sodipodi-0.dtd"
   xmlns:inkscape="http://www.inkscape.org/namespaces/inkscape"
   version="1.1"
   x="0px"
   y="0px"
   width="86px"
   height="86px"
   viewBox="0 0 86 86"
   enable-background="new 0 0 86 86"
   xml:space="preserve"
   id="svg19"
   sodipodi:docname="harbour-multi-keyboard-layouts.svg"
   inkscape:version="0.92.4 5da689c313, 2019-01-14"
   inkscape:export-filename="/home/adel/workspace/harbour-multi-keyboard-layouts/icons/harbour-multi-keyboard-layouts.png"
   inkscape:export-xdpi="96.674477"
   inkscape:export-ydpi="96.674477"><metadata
   id="metadata25"><rdf:RDF><cc:Work
       rdf:about=""><dc:format>image/svg+xml</dc:format><dc:type
         rdf:resource="http://purl.org/dc/dcmitype/StillImage" /><dc:title /></cc:Work></rdf:RDF></metadata><defs
   id="defs23" /><sodipodi:namedview
   pagecolor="#ffffff"
   bordercolor="#666666"
   borderopacity="1"
   objecttolerance="10"
   gridtolerance="10"
   guidetolerance="10"
   inkscape:pageopacity="0"
   inkscape:pageshadow="2"
   inkscape:window-width="3840"
   inkscape:window-height="2031"
   id="namedview21"
   showgrid="false"
   inkscape:zoom="1.9404325"
   inkscape:cx="-462.73499"
   inkscape:cy="-10.122435"
   inkscape:window-x="0"
   inkscape:window-y="0"
   inkscape:window-maximized="1"
   inkscape:current-layer="Layer_1"
   showguides="true"
   inkscape:guide-bbox="true" />
<g
   id="Layer_2"
   display="none">
</g>
<g
   id="Layer_1">
	
		<radialGradient
   id="SVGID_1_"
   cx="43.2205"
   cy="43.2221"
   r="42.7984"
   gradientTransform="matrix(0.9977 0 0 0.9977 -0.1211 -0.1227)"
   gradientUnits="userSpaceOnUse">
		<stop
   offset="0"
   style="stop-color:#3FA17F"
   id="stop3" />
		<stop
   offset="1"
   style="stop-color:#A1D2D4"
   id="stop5" />
	</radialGradient>
	<path
   fill="url(#SVGID_1_)"
   d="M85.7,84.277c0,0.786-0.637,1.423-1.423,1.423H1.723c-0.786,0-1.423-0.637-1.423-1.423V1.723   C0.3,0.937,0.937,0.3,1.723,0.3h82.553c0.786,0,1.423,0.637,1.423,1.423V84.277z"
   id="path8" />
	<g
   id="g12"
   transform="translate(0,-6)">
		<path
   d="m 75.098,62.785 c 0,0.891 -0.852,1.614 -1.902,1.614 H 12.804 c -1.051,0 -1.902,-0.723 -1.902,-1.614 V 11.543 c 0,-0.891 0.852,-1.614 1.902,-1.614 h 60.392 c 1.051,0 1.902,0.723 1.902,1.614 z"
   id="path10"
   inkscape:connector-curvature="0"
   style="fill:#20473e" />
	</g>
	
	<path
   d="M 60.599603,42.836 H 24.380715 c -2.090654,0 -3.798397,0.935 -3.798397,2.076 v 0.795 0.093 0.795 c 0,1.142 1.707743,2.077 3.798397,2.077 h 36.218888 c 2.090653,0 3.798396,-0.935 3.798396,-2.077 V 45.8 45.707 44.912 c 0.002,-1.141 -1.707743,-2.076 -3.798396,-2.076 z"
   id="path16"
   inkscape:connector-curvature="0"
   style="fill:#00ff14;stroke-width:1.43096232" />
<path
   d="M 28.930883,33.406171 H 21.57332 c -0.424698,0 -0.771612,0.935 -0.771612,2.076 v 0.795 0.093 0.795 c 0,1.142 0.346914,2.077 0.771612,2.077 h 7.357563 c 0.424698,0 0.771612,-0.935 0.771612,-2.077 v -0.795 -0.093 -0.795 c 4.06e-4,-1.141 -0.346914,-2.076 -0.771612,-2.076 z"
   id="path16-3"
   inkscape:connector-curvature="0"
   style="fill:#00ff14;stroke-width:0.64495236" /><path
   d="m 46.83926,33.232077 h -7.357563 c -0.424698,0 -0.771612,0.935 -0.771612,2.076 v 0.795 0.093 0.795 c 0,1.142 0.346914,2.077 0.771612,2.077 h 7.357563 c 0.424698,0 0.771612,-0.935 0.771612,-2.077 v -0.795 -0.093 -0.795 c 4.06e-4,-1.141 -0.346914,-2.076 -0.771612,-2.076 z"
   id="path16-3-6"
   inkscape:connector-curvature="0"
   style="fill:#00ff14;stroke-width:0.64495236" /><path
   d="m 63.394848,33.232077 h -7.357563 c -0.424698,0 -0.771612,0.935 -0.771612,2.076 v 0.795 0.093 0.795 c 0,1.142 0.346914,2.077 0.771612,2.077 h 7.357563 c 0.424698,0 0.771612,-0.935 0.771612,-2.077 v -0.795 -0.093 -0.795 c 4.06e-4,-1.141 -0.346914,-2.076 -0.771612,-2.076 z"
   id="path16-3-7"
   inkscape:connector-curvature="0"
   style="fill:#00ff14;stroke-width:0.64495236" /><path
   d="m 28.834255,22.799726 h -7.357563 c -0.424698,0 -0.771612,0.935 -0.771612,2.076 v 0.795 0.093 0.795 c 0,1.142 0.346914,2.077 0.771612,2.077 h 7.357563 c 0.424698,0 0.771612,-0.935 0.771612,-2.077 v -0.795 -0.093 -0.795 c 4.06e-4,-1.141 -0.346914,-2.076 -0.771612,-2.076 z"
   id="path16-3-5"
   inkscape:connector-curvature="0"
   style="fill:#00ff14;stroke-width:0.64495236" /><path
   d="m 46.742632,22.625632 h -7.357563 c -0.424698,0 -0.771612,0.935 -0.771612,2.076 v 0.795 0.093 0.795 c 0,1.142 0.346914,2.077 0.771612,2.077 h 7.357563 c 0.424698,0 0.771612,-0.935 0.771612,-2.077 v -0.795 -0.093 -0.795 c 4.06e-4,-1.141 -0.346914,-2.076 -0.771612,-2.076 z"
   id="path16-3-6-3"
   inkscape:connector-curvature="0"
   style="fill:#00ff14;stroke-width:0.64495236" /><path
   d="m 63.29822,22.625632 h -7.357563 c -0.424698,0 -0.771612,0.935 -0.771612,2.076 v 0.795 0.093 0.795 c 0,1.142 0.346914,2.077 0.771612,2.077 h 7.357563 c 0.424698,0 0.771612,-0.935 0.771612,-2.077 v -0.795 -0.093 -0.795 c 4.06e-4,-1.141 -0.346914,-2.076 -0.771612,-2.076 z"
   id="path16-3-7-5"
   inkscape:connector-curvature="0"
   style="fill:#00ff14;stroke-width:0.64495236" /><path
   d="m 28.991291,13.124555 h -7.357563 c -0.424698,0 -0.771612,0.935 -0.771612,2.076 v 0.795 0.093 0.795 c 0,1.142 0.346914,2.077 0.771612,2.077 h 7.357563 c 0.424698,0 0.771612,-0.935 0.771612,-2.077 v -0.795 -0.093 -0.795 c 4.06e-4,-1.141 -0.346914,-2.076 -0.771612,-2.076 z"
   id="path16-3-2"
   inkscape:connector-curvature="0"
   style="fill:#00ff14;stroke-width:0.64495236" /><path
   d="m 46.899668,12.950461 h -7.357563 c -0.424698,0 -0.771612,0.935 -0.771612,2.076 v 0.795 0.093 0.795 c 0,1.142 0.346914,2.077 0.771612,2.077 h 7.357563 c 0.424698,0 0.771612,-0.935 0.771612,-2.077 v -0.795 -0.093 -0.795 c 4.06e-4,-1.141 -0.346914,-2.076 -0.771612,-2.076 z"
   id="path16-3-6-7"
   inkscape:connector-curvature="0"
   style="fill:#00ff14;stroke-width:0.64495236" /><path
   d="m 63.455256,12.950461 h -7.357563 c -0.424698,0 -0.771612,0.935 -0.771612,2.076 v 0.795 0.093 0.795 c 0,1.142 0.346914,2.077 0.771612,2.077 h 7.357563 c 0.424698,0 0.771612,-0.935 0.771612,-2.077 v -0.795 -0.093 -0.795 c 4.06e-4,-1.141 -0.346914,-2.076 -0.771612,-2.076 z"
   id="path16-3-7-0"
   inkscape:connector-curvature="0"
   style="fill:#00ff14;stroke-width:0.64495236" /><text
   xml:space="preserve"
   style="font-style:normal;font-weight:normal;font-size:11.75264359px;line-height:1.25;font-family:sans-serif;letter-spacing:0px;word-spacing:0px;fill:#000000;fill-opacity:1;stroke:none;stroke-width:0.29381609"
   x="43.1432"
   y="71.511307"
   id="text3746"><tspan
     sodipodi:role="line"
     x="43.1432"
     y="71.511307"
     style="font-style:normal;font-variant:normal;font-weight:normal;font-stretch:normal;font-size:16px;font-family:sans-serif;-inkscape-font-specification:'sans-serif, Normal';font-variant-ligatures:normal;font-variant-caps:normal;font-variant-numeric:normal;font-feature-settings:normal;text-align:center;writing-mode:lr-tb;text-anchor:middle;stroke-width:0.29381609"
     id="tspan26">Keyboard</tspan></text>



<text
   xml:space="preserve"
   style="font-style:normal;font-weight:normal;font-size:40px;line-height:1.25;font-family:sans-serif;letter-spacing:0px;word-spacing:0px;fill:#000000;fill-opacity:1;stroke:none"
   x="22.59322"
   y="82.81144"
   id="text4540"><tspan
     sodipodi:role="line"
     id="tspan4538"
     x="22.59322"
     y="82.81144"
     style="font-style:normal;font-variant:normal;font-weight:normal;font-stretch:normal;font-size:10.66666698px;font-family:sans-serif;-inkscape-font-specification:'sans-serif, Normal';font-variant-ligatures:normal;font-variant-caps:normal;font-variant-numeric:normal;font-feature-settings:normal;text-align:start;writing-mode:lr-tb;text-anchor:start">Layouts</tspan></text>


</g>
</svg>